<?xml version="1.0" encoding="utf-8"?>
<!-- Generator: Adobe Illustrator 19.0.0, SVG Export Plug-In . SVG Version: 6.00 Build 0)  -->
<svg version="1.1" id="Layer_1" xmlns="http://www.w3.org/2000/svg" xmlns:xlink="http://www.w3.org/1999/xlink" x="0px" y="0px"
	 viewBox="0 0 500 500" style="enable-background:new 0 0 500 500;" xml:space="preserve">
<style type="text/css">
	.st0{fill:url(#path617_1_);}
	.st1{fill:url(#path618_1_);}
	.st2{fill:url(#path619_1_);}
	.st3{fill:#808080;}
	.st4{fill:#B4D0EC;}
	.st5{fill:url(#path615_1_);}
	.st6{opacity:0.1972;enable-background:new    ;}
	.st7{fill:url(#path624_1_);}
	.st8{fill:url(#path633_3_);}
	.st9{fill:url(#path633_4_);}
	.st10{fill:url(#path552_1_);}
	.st11{fill:url(#path600_1_);}
	.st12{fill:url(#path623_1_);}
	.st13{fill:url(#path631_3_);}
	.st14{fill:url(#path631_4_);}
	.st15{fill:url(#path621_1_);}
</style>
<g id="XMLID_13_">
</g>
<g id="XMLID_11_">
</g>
<g id="XMLID_9_">
</g>
<g id="XMLID_8_">
</g>
<g>
	
		<radialGradient id="path617_1_" cx="211.0669" cy="101.6131" r="58.7686" gradientTransform="matrix(1.4974 0 0 1.9006 -225.104 -30.2776)" gradientUnits="userSpaceOnUse">
		<stop  offset="0" style="stop-color:#FFFFFF"/>
		<stop  offset="1" style="stop-color:#8F8F8F"/>
	</radialGradient>
	<path id="path617" class="st0" d="M171.5,209.2c0,36.5-23.3,65.9-52,65.9s-52-29.6-52-65.9c0-36.5,23.3-66.1,52-66.1
		S171.5,172.8,171.5,209.2L171.5,209.2z"/>
	
		<radialGradient id="path618_1_" cx="204.0516" cy="111.3921" r="35.1755" gradientTransform="matrix(1.7905 0 0 1.5896 -253.6854 -28.0211)" gradientUnits="userSpaceOnUse">
		<stop  offset="0" style="stop-color:#72A6DB"/>
		<stop  offset="1" style="stop-color:#4974AA"/>
	</radialGradient>
	<path id="path618" class="st1" d="M179.5,208.7c0,30.6-62.6-53.9-111.2-25.4c0-30.6,27.8-66.8,67.4-66.8
		C186.7,118.2,179.5,178.1,179.5,208.7z"/>
	
		<linearGradient id="path619_1_" gradientUnits="userSpaceOnUse" x1="650.6181" y1="50.1998" x2="663.8255" y2="123.9758" gradientTransform="matrix(0.6454 0 0 1.9326 -33.0684 78.9059)">
		<stop  offset="0" style="stop-color:#72A6DB"/>
		<stop  offset="1" style="stop-color:#4974AA"/>
	</linearGradient>
	<path id="path619" class="st2" d="M343.8,241.6c-0.7-35.9,7.5-75.2,24.7-114.5c11.9-21.3,27.3-39.3,59.5-47.1
		c-24.7,43-14.6,79.4-19.1,121.2c-7.5,17.5-13.8,29.6-16.8,57.3c1.2,52,18,64.8,40.4,85.3c-29.6,8.2-50.1-12.7-67.3-24.7
		C356.2,288,352.8,272.7,343.8,241.6z"/>
	<g id="g595" transform="matrix(0.718586,0,0,0.718583,2.167268,69.94656)">
		<path id="path596" d="M140.4,194.4c0,11-8.6,19.9-19,19.9c-10.6,0-19-8.9-19-19.9c0-11,8.6-19.9,19-19.9
			C131.9,174.5,140.4,183.4,140.4,194.4L140.4,194.4z"/>
		<path id="path597" class="st3" d="M135.7,188.4c0,5.3-3.2,9.5-7.2,9.5c-3.9,0-7.2-4.2-7.2-9.5c0-5.3,3.2-9.5,7.2-9.5
			S135.7,183.1,135.7,188.4z"/>
	</g>
	<path id="path630_1_" class="st4" d="M352.8,207.9c11.6-54.6,14.3-62.1,21.3-79.7c7.8-14.6,12.4-26.9,47.1-43.8
		c-18.7,15.7-28.4,33.7-35.9,57.3c-3.7,19.4-10.9,38.9-6.8,103.3C372.7,235.2,358.8,217.6,352.8,207.9z"/>
	
		<radialGradient id="path615_1_" cx="224.9777" cy="125.1322" r="158.4109" gradientTransform="matrix(1.6748 0 0 1.6992 -210.5994 -38.1152)" gradientUnits="userSpaceOnUse">
		<stop  offset="0" style="stop-color:#3278C6"/>
		<stop  offset="1" style="stop-color:#264980"/>
	</radialGradient>
	<path id="path615" class="st5" d="M386.5,261.8c-2.2,54.7-90.8,159.4-171.7,158.3c-74.2-1.2-138.1-73.2-138.1-159.4
		s56-152.7,137-154.9C300.2,106.8,387.6,227.3,386.5,261.8z"/>
	<path id="path632" class="st6" d="M305.7,213.5c19.1,28.7,12.7,52.9,2.3,69.5c-10.4,16.7-39.3,25.7-55.1,24.7
		c-55.2-3.4-47.1-27.8-47.1-78.6s33.5-99.9,65.1-99.9C294.6,135,305.7,162.7,305.7,213.5z"/>
	
		<radialGradient id="path624_1_" cx="283.1747" cy="153.6573" r="30.7415" gradientTransform="matrix(1.8028 0 0 1.724 -276.9087 -45.3236)" gradientUnits="userSpaceOnUse">
		<stop  offset="0" style="stop-color:#72A6DB"/>
		<stop  offset="1" style="stop-color:#4974AA"/>
	</radialGradient>
	<path id="path624" class="st7" d="M307.9,243.5c0,30.2-25.6,54.7-57.2,54.7s-57.2-24.5-57.2-54.7l0,0c0-30.2,25.6-54.7,57.2-54.7
		C282.3,188.9,307.9,213.3,307.9,243.5L307.9,243.5z"/>
	
		<linearGradient id="path633_3_" gradientUnits="userSpaceOnUse" x1="277.909" y1="118.2325" x2="280.5533" y2="199.4935" gradientTransform="matrix(1.0721 0 0 1.085 -52.3395 44.8475)">
		<stop  offset="0" style="stop-color:#FFFFFF"/>
		<stop  offset="1" style="stop-color:#2D2D2D"/>
	</linearGradient>
	<path id="path633_1_" class="st8" d="M300.1,226.5c0,29.5-23.7,53.4-52.7,53.4c-29.2,0-52.7-23.9-52.7-53.4s23.6-53.4,52.7-53.4
		C276.4,173.1,300.1,197,300.1,226.5L300.1,226.5z"/>
	
		<linearGradient id="path633_4_" gradientUnits="userSpaceOnUse" x1="277.909" y1="118.2325" x2="280.5533" y2="199.4935" gradientTransform="matrix(1.0721 0 0 1.085 -52.3395 44.8475)">
		<stop  offset="0" style="stop-color:#FFFFFF"/>
		<stop  offset="1" style="stop-color:#FFFFFF"/>
	</linearGradient>
	<path id="path633" class="st9" d="M300.1,226.5c0,29.5-23.7,53.4-52.7,53.4c-29.2,0-52.7-23.9-52.7-53.4s23.6-53.4,52.7-53.4
		C276.4,173.1,300.1,197,300.1,226.5L300.1,226.5z"/>
	
		<linearGradient id="path552_1_" gradientUnits="userSpaceOnUse" x1="288.7088" y1="101.9858" x2="293.1237" y2="168.9543" gradientTransform="matrix(1.0234 0 0 1.3332 -51.6628 51.9252)">
		<stop  offset="0" style="stop-color:#FFFFFF"/>
		<stop  offset="1" style="stop-color:#8F8F8F"/>
	</linearGradient>
	<path id="path552" class="st10" d="M298.4,205.3c0,38.6-24,70-53.7,70c-29.7,0-53.7-31.3-53.7-70c0-38.6,24-70,53.7-70
		C274.3,135.4,298.4,166.7,298.4,205.3C298.4,205.2,298.4,205.3,298.4,205.3z"/>
	
		<radialGradient id="path600_1_" cx="264.3452" cy="104.6685" r="34.8488" gradientTransform="matrix(1.7552 0 0 1.6215 -231.2845 -25.9419)" gradientUnits="userSpaceOnUse">
		<stop  offset="0" style="stop-color:#72A6DB"/>
		<stop  offset="1" style="stop-color:#4974AA"/>
	</radialGradient>
	<path id="path600" class="st11" d="M298.9,210.9c-9-8-36.4-52.8-108.2-25.7c0-30.6,12.2-74.3,51.8-74.3
		C293.3,112.6,298.9,180.3,298.9,210.9z"/>
	<g id="use2998" transform="translate(19.311372,0.43991)">
		<g id="g595_1_" transform="matrix(0.718586,0,0,0.718583,2.167268,69.94656)">
			<path id="path596_1_" d="M388.7,200c0,11-8.6,19.9-19,19.9c-10.6,0-19-8.9-19-19.9c0-11,8.6-19.9,19-19.9
				C380.3,180.2,388.7,189,388.7,200L388.7,200z"/>
			<path id="path597_1_" class="st3" d="M384,194c0,5.3-3.2,9.5-7.2,9.5s-7.2-4.2-7.2-9.5c0-5.3,3.2-9.5,7.2-9.5S384,188.7,384,194z
				"/>
		</g>
	</g>
	
		<linearGradient id="path623_1_" gradientUnits="userSpaceOnUse" x1="170.9766" y1="412.8362" x2="174.7163" y2="473.2841" gradientTransform="matrix(1.6948 0 0 0.736 -123.632 31.4153)">
		<stop  offset="0" style="stop-color:#72A6DB"/>
		<stop  offset="1" style="stop-color:#4974AA"/>
	</linearGradient>
	<path id="path623" class="st12" d="M85.6,335.9c1.9,7.8,57.6,31.4,145.9-2.2c3.6-0.4,21.1-19.3,21-15.6
		c-0.2,10.1-8.1,23.8-18.5,35.1C212,380,174,396.5,130.6,392c-20.9-1.9-37.1-12.7-46.8-29.2C75.4,347.3,80.8,344.5,85.6,335.9z"/>
	
		<linearGradient id="path631_3_" gradientUnits="userSpaceOnUse" x1="138.2048" y1="572.566" x2="142.7049" y2="525.0018" gradientTransform="matrix(2.063 0 0 0.6046 -140.8798 23.9934)">
		<stop  offset="0" style="stop-color:#6A6A6A"/>
		<stop  offset="1" style="stop-color:#000000"/>
	</linearGradient>
	<path id="path631_1_" class="st13" d="M84.7,319.2c1.9,7.8,54.2,34.8,142.6,1.2c11.8-6.1,20-0.8,7.8,18
		c-22.1,22.4-89.1,31.4-110,28.1c-20.9-1.9-46.4-9.4-50.5-22.4C71.5,332.6,75.4,325.6,84.7,319.2z"/>
	
		<linearGradient id="path631_4_" gradientUnits="userSpaceOnUse" x1="138.2048" y1="572.566" x2="142.7049" y2="525.0018" gradientTransform="matrix(2.063 0 0 0.6046 -140.8798 23.9934)">
		<stop  offset="0" style="stop-color:#000000"/>
		<stop  offset="1" style="stop-color:#000000"/>
	</linearGradient>
	<path id="path631" class="st14" d="M84.7,319.2c1.9,7.8,54.2,34.8,142.6,1.2c11.8-6.1,20-0.8,7.8,18c-22.1,22.4-89.1,31.4-110,28.1
		c-20.9-1.9-46.4-9.4-50.5-22.4C71.5,332.6,75.4,325.6,84.7,319.2z"/>
	
		<linearGradient id="path621_1_" gradientUnits="userSpaceOnUse" x1="143.0984" y1="525.2688" x2="146.118" y2="574.0766" gradientTransform="matrix(2.1507 0 0 0.58 -144.5459 22.3157)">
		<stop  offset="0" style="stop-color:#72A6DB"/>
		<stop  offset="1" style="stop-color:#4974AA"/>
	</linearGradient>
	<path id="path621" class="st15" d="M85.6,315.7c1.9,7.8,51.4,45.5,145.4,9c6.2-2.6,17.8-7.9,20.1-7.5c3.5,0.6-4.3,8.9-13.6,18.3
		c-22.1,22.4-90.5,30.8-111.5,27.4c-20.9-1.9-46.4-9.4-50.5-22.4C72.4,329.1,76.2,322,85.6,315.7z"/>
</g>
</svg>
