<?xml version="1.0" encoding="UTF-8" standalone="no"?>
<!-- Created with Inkscape (http://www.inkscape.org/) -->

<svg
   xmlns:dc="http://purl.org/dc/elements/1.1/"
   xmlns:cc="http://creativecommons.org/ns#"
   xmlns:rdf="http://www.w3.org/1999/02/22-rdf-syntax-ns#"
   xmlns:svg="http://www.w3.org/2000/svg"
   xmlns="http://www.w3.org/2000/svg"
   xmlns:sodipodi="http://sodipodi.sourceforge.net/DTD/sodipodi-0.dtd"
   xmlns:inkscape="http://www.inkscape.org/namespaces/inkscape"
   version="1.0"
   width="96"
   height="96"
   id="svg2408"
   inkscape:version="0.48.3.1 r9886"
   sodipodi:docname="midori.svg">
  <sodipodi:namedview
     pagecolor="#ffffff"
     bordercolor="#666666"
     borderopacity="1"
     objecttolerance="10"
     gridtolerance="10"
     guidetolerance="10"
     inkscape:pageopacity="0"
     inkscape:pageshadow="2"
     inkscape:window-width="1280"
     inkscape:window-height="752"
     id="namedview128"
     showgrid="false"
     inkscape:zoom="4"
     inkscape:cx="52.462743"
     inkscape:cy="25.284605"
     inkscape:window-x="0"
     inkscape:window-y="0"
     inkscape:window-maximized="1"
     inkscape:current-layer="g5602"
     showguides="true"
     inkscape:guide-bbox="true" />
  <defs
     id="defs2410">
    <linearGradient
       x1="45.447727"
       y1="92.539597"
       x2="45.447727"
       y2="7.0165396"
       id="ButtonShadow"
       gradientUnits="userSpaceOnUse"
       gradientTransform="scale(1.0058652,0.994169)">
      <stop
         id="stop3750"
         style="stop-color:#000000;stop-opacity:1"
         offset="0" />
      <stop
         id="stop3752"
         style="stop-color:#000000;stop-opacity:0.58823532"
         offset="1" />
    </linearGradient>
    <filter
       color-interpolation-filters="sRGB"
       id="filter3174">
      <feGaussianBlur
         id="feGaussianBlur3176"
         stdDeviation="1.71" />
    </filter>
  </defs>
  <metadata
     id="metadata2413">
    <rdf:RDF>
      <cc:Work
         rdf:about="">
        <dc:format>image/svg+xml</dc:format>
        <dc:type
           rdf:resource="http://purl.org/dc/dcmitype/StillImage" />
        <dc:title />
      </cc:Work>
    </rdf:RDF>
  </metadata>
  <g
     id="layer2"
     style="display:none">
    <path
       d="M 11,7 C 7.676,7 5,9.676 5,13 l 0,33.6875 c 2.2377507,0.124029 4.660506,0.235683 5.875,0.4375 0.66093,0.10983 -0.08406,0.240848 -1.125,0.34375 C 8.7090622,47.571654 7.3545491,47.665119 6.84375,47.75 6.2216014,47.853382 5.6264179,47.903999 5,48 l 0,1.0625 c 0.3803657,0.03607 0.7183843,0.03125 0.9375,0.03125 0.80883,10e-7 1.1599727,0.215701 1.3125,0.5625 0.1525272,0.346797 0.09375,0.839723 0.09375,1.40625 0,0.424828 -0.9420178,0.663014 -1.15625,1.375 C 6.110939,52.691968 5.5510552,52.945524 5,53.1875 l 0,2.21875 c 0.7355867,0.02497 1.4332639,0.05671 1.84375,0.3125 C 7.1254716,55.894306 6.0687957,56.124098 5,56.3125 l 0,7.5625 c 1.1379643,0.180337 3.3100715,0.925679 3.96875,1.0625 1.090152,0.226446 1.224723,0.33476 0.875,0.4375 -0.3497231,0.102744 -1.173581,0.175172 -2,0.3125 C 6.8656638,65.850029 5.90816,66.141998 5,66.34375 L 5,86 c 0,3.324 2.676,6 6,6 l 13,0 c 0.0954,-0.438237 0.150955,-0.931178 0.25,-1.4375 0.140364,-0.717512 0.25498,-1.34159 0.375,-1.59375 0.03001,-0.06304 0.05815,-0.114053 0.09375,-0.125 0.106804,-0.03285 0.238198,0.191956 0.46875,0.78125 0.304338,0.777871 0.540174,1.646782 0.6875,2.375 l 0.75,0 c 0.276152,-0.493694 0.578538,-1.138496 0.8125,-1.4375 0.09907,-0.126629 0.275237,0.131501 0.53125,0.375 0.256014,0.2435 0.588904,0.486378 0.9375,0.375 0.648614,-0.207227 1.602807,-0.726227 2.03125,-1 0.139883,-0.08938 0.300164,-0.157976 0.40625,-0.1875 0.106087,-0.02952 0.174331,-0.01774 0.25,0 0.151339,0.03548 0.232196,0.144559 0.34375,0.28125 0.223098,0.27338 0.466785,0.656251 1.0625,0.65625 0.478344,0 0.657185,-0.0325 0.78125,0.0625 0.124065,0.095 0.197087,0.314551 0.40625,0.875 l 8.875,0 c -0.04778,-0.593879 1.040547,-2.151517 1.21875,-3.0625 0.19092,-0.975995 0.214078,-1.242419 0.28125,-1.0625 0.06717,0.179919 0.192504,0.793906 0.46875,1.5 0.110448,0.282298 0.213887,0.358235 0.3125,0.28125 0.09861,-0.07699 0.168895,-0.293948 0.25,-0.5625 0.162213,-0.537107 0.285649,-1.296709 0.34375,-1.59375 0.131129,-0.670335 0.128655,-1.786501 0.125,-2.28125 -9.11e-4,-0.123687 -0.0059,-0.217815 0,-0.25 0.01779,-0.09656 0.08067,0.312079 0.28125,1.59375 0.163819,1.046767 0.54767,2.687946 0.71875,3.5625 0.169798,0.867992 0.298106,1.322124 0.40625,1.875 l 28.21875,0 c 0.03877,-0.494956 0.03519,-1.098589 0.0625,-1.5 0.02049,-0.301057 0.06649,-0.487005 0.15625,-0.46875 0.02992,0.0061 0.05077,0.03882 0.09375,0.09375 0.233449,0.298339 0.630596,1.164908 0.96875,1.875 L 85,92 c 3.324,0 6,-2.676 6,-6 l 0,-7.21875 c -0.16942,0.0045 -0.290112,-4e-6 -0.5,0 -1.330307,0 -2.638456,-4e-6 -3.96875,0 -1.226564,0 -2.05394,-9.64e-4 -2.25,-0.0625 -0.19606,-0.06154 0.232972,-0.183183 1.46875,-0.5 C 86.405034,78.050819 89.092469,77.290673 91,76.875 L 91,38.46875 C 90.34725,38.202412 89.792969,37.980093 89.25,37.5625 89.107486,37.452886 88.801155,37.170028 88.28125,37 87.761349,36.829972 87.007124,36.743855 86,36.9375 c -1.533473,0.294852 -1.685602,0.283469 -1.25,0.15625 0.4356,-0.127221 1.468635,-0.381012 2.25,-0.53125 1.152717,-0.221645 2.722214,-1.204246 4,-1.84375 l 0,-4.5625 c -0.69831,-0.257978 -1.422206,-0.558272 -1.75,-1.0625 -0.209707,-0.322576 -0.321618,-0.513018 -0.3125,-0.625 0.0091,-0.111981 0.13299,-0.149124 0.25,-0.1875 0.117011,-0.03837 0.261032,-0.05449 0.375,-0.15625 0.11397,-0.101759 0.187497,-0.291619 0.1875,-0.59375 0,-0.32292 0.08246,-0.887065 0.0625,-1.40625 -0.01,-0.259593 -0.03562,-0.49724 -0.125,-0.6875 -0.08939,-0.19026 -0.219089,-0.333004 -0.4375,-0.375 -0.574572,-0.110478 -0.848143,-0.233682 -0.90625,-0.34375 -0.05811,-0.110067 0.07208,-0.18937 0.28125,-0.28125 0.418339,-0.18376 1.132532,-0.339398 1.125,-0.34375 -0.668701,-0.385725 -5.247169,-0.921226 -5,-0.96875 0.332574,-0.06395 0.667437,-0.123553 1,-0.1875 1.047644,-0.201439 2.43278,-0.309227 3.75,-0.5625 0.573261,-0.110227 0.911769,-0.250569 1.125,-0.4375 0.213229,-0.18693 0.294201,-0.423258 0.375,-0.625 L 91,13 C 91,9.676 88.324,7 85,7 L 33.625,7 C 33.72158,8.3975706 33.82658,9.959362 33.53125,9.1875 33.320827,8.6375466 33.210422,8.0499534 33,7.5 32.946762,7.3608606 32.903941,7.1705291 32.84375,7 L 30.8125,7 C 30.571803,7.4923127 30.362863,7.9708281 30.03125,8.1875 29.524321,8.5187294 29.245447,8.6821159 29,8.59375 28.754552,8.5053839 28.523162,8.1669814 28.15625,7.6875 27.992502,7.4735174 27.721718,7.2560338 27.40625,7 l -6.8125,0 -1.3125,5.5625 L 17.53125,7 17.3125,7 15.5625,15.9375 14.15625,7 11,7 z"
       inkscape:connector-curvature="0"
       id="rect3745"
       style="opacity:0.9;fill:url(#ButtonShadow);fill-opacity:1;fill-rule:nonzero;stroke:none;filter:url(#filter3174)" />
  </g>
  <g
     id="g5602">
    <rect
       style="fill:#5599ff;fill-opacity:1;stroke:none"
       id="rect6228"
       width="96"
       height="96"
       x="0"
       y="0" />
    <g
       id="g5178"
       transform="matrix(2.042321,0.57710452,-0.57710452,2.042321,-32.783235,-48.784191)"
       style="fill:#225500;stroke:#17280b;stroke-linejoin:round;stroke-linecap:round;stroke-width:1.47105089000000011;stroke-miterlimit:4;stroke-dasharray:none;opacity:0.26244344">
      <path
         style="font-size:medium;font-style:normal;font-variant:normal;font-weight:normal;font-stretch:normal;text-indent:0;text-align:start;text-decoration:none;line-height:normal;letter-spacing:normal;word-spacing:normal;text-transform:none;direction:ltr;block-progression:tb;writing-mode:lr-tb;text-anchor:start;baseline-shift:baseline;color:#000000;fill:#225500;fill-opacity:1;stroke:#17280b;stroke-width:1.47105089000000011;marker:none;visibility:visible;display:inline;overflow:visible;enable-background:accumulate;font-family:Sans;-inkscape-font-specification:Sans;stroke-linejoin:round;stroke-linecap:round;stroke-miterlimit:4;stroke-dasharray:none"
         d="m 58.500049,11.232554 c -0.01096,0.0099 -0.0214,0.02029 -0.03125,0.03125 -0.01041,-3.93e-4 -0.02084,-3.93e-4 -0.03125,0 -0.0069,0.0034 -0.02423,0.02779 -0.03125,0.03125 -0.01041,-3.93e-4 -0.02084,-3.93e-4 -0.03125,0 -4.23292,2.080901 -24.423284,9.958943 -24.687549,27.079946 0.06516,2.883078 0.819369,6.084731 2.34375,8.375 0.762191,1.145135 1.709602,2.062754 2.90625,2.5625 1.196648,0.499746 2.616654,0.58129 4.1875,0.0625 0.167999,-0.05539 0.144064,-0.05269 0.125,-0.0625 -0.01906,-0.0098 0.05716,0.05602 0.1875,0.21875 2.158877,2.695496 4.829936,3.383949 7.03125,2.96875 2.013824,-0.379836 3.564487,-1.646302 4.15625,-3.0625 1.784751,0.552363 3.28413,0.61086 4.53125,0.21875 1.317999,-0.414396 2.343372,-1.312739 3.09375,-2.4375 1.490484,-2.234123 2.038313,-5.420231 2.28125,-8.34375 0.0017,-0.02015 -0.0016,-0.04238 0,-0.0625 0.288118,-1.412855 0.224617,-3.596887 0,-6.125 -0.226909,-2.55391 -0.645023,-5.423891 -1.125,-8.09375 -0.479977,-2.669859 -1.012317,-5.139456 -1.5,-6.84375 -0.243841,-0.852147 -0.468004,-1.497787 -0.6875,-1.9375 -0.109748,-0.219856 -0.200094,-0.386217 -0.40625,-0.53125 -0.103078,-0.07252 -0.259745,-0.143702 -0.4375,-0.09375 -0.177755,0.04995 -0.283219,0.17825 -0.34375,0.28125 -3.974984,6.763852 -7.2778,10.678611 -9.625,12.5 -1.1736,0.910695 -2.133914,1.271915 -2.71875,1.28125 -0.292418,0.0047 -0.495624,-0.0613 -0.65625,-0.1875 -0.160626,-0.126204 -0.28843,-0.329025 -0.375,-0.625 -0.34628,-1.183901 0.263115,-3.83272 2.25,-6.9375 1.978367,-3.09147 5.05327,-6.238006 9.875049,-9.486196 0.0074,-0.005 0.02387,0.005 0.03125,0 0.01096,-0.0099 0.0214,-0.02029 0.03125,-0.03125 0.0471,-0.02296 0.08977,-0.05497 0.125,-0.09375 3.94e-4,-0.01041 3.94e-4,-0.02084 0,-0.03125 0.01411,-0.02985 0.02462,-0.0614 0.03125,-0.09375 0.01411,-0.02985 0.02462,-0.0614 0.03125,-0.09375 0.0035,-0.03111 0.0035,-0.06263 0,-0.09375 3.94e-4,-0.01041 3.94e-4,-0.02084 0,-0.03125 3.94e-4,-0.01041 3.94e-4,-0.02084 0,-0.03125 -0.01357,-0.0448 -0.0348,-0.08727 -0.0625,-0.125 -0.01041,-3.93e-4 -0.02084,-3.93e-4 -0.03125,0 3.94e-4,-0.01041 3.94e-4,-0.02084 0,-0.03125 -0.01041,-3.93e-4 -0.02084,-3.93e-4 -0.03125,0 -0.01852,-0.02298 -0.03952,-0.04397 -0.0625,-0.0625 -0.0099,-0.01096 -0.02029,-0.0214 -0.03125,-0.03125 -0.01041,-3.93e-4 -0.02084,-3.93e-4 -0.03125,0 -0.0199,-0.01215 -0.04084,-0.02262 -0.0625,-0.03125 -0.02079,-0.0016 -0.04171,-0.0016 -0.0625,0 -0.01041,-3.93e-4 -0.02084,-3.93e-4 -0.03125,0 -0.04135,-0.0063 -0.08365,-0.0063 -0.125,0 z m -3.03125,2.4375 c -3.255932,2.639205 -5.67004,4.892215 -7.250049,7.361196 -2.055935,3.21268 -2.83717,5.938039 -2.34375,7.625 0.123355,0.42174 0.335962,0.810849 0.65625,1.0625 0.320288,0.251651 0.741681,0.350866 1.1875,0.34375 0.891639,-0.01423 1.937337,-0.498644 3.1875,-1.46875 2.446399,-1.898366 5.671905,-5.825722 9.5625,-12.375 0.168495,0.343163 0.422611,0.964757 0.65625,1.78125 0.474511,1.658262 0.992414,4.069145 1.46875,6.71875 0.476336,2.649605 0.901127,5.542759 1.125,8.0625 0.223873,2.519741 0.256357,4.692386 0,5.90625 -0.01215,0.0199 -0.02262,0.04084 -0.03125,0.0625 -0.236002,2.885025 -0.779895,6.015039 -2.125,8.03125 -0.672552,1.008106 -1.540575,1.711718 -2.65625,2.0625 -1.072563,0.337228 -2.420972,0.291059 -4.125,-0.25 -0.0139,-0.02237 0.01876,-0.04008 0,-0.0625 -0.08222,-0.09827 -0.230777,-0.179135 -0.34375,-0.1875 -0.112973,-0.0084 -0.203468,0.01758 -0.28125,0.0625 -0.155564,0.08983 -0.276175,0.323645 -0.21875,0.5625 0.0044,0.01837 0.02534,0.01439 0.03125,0.03125 -0.374647,1.088123 -1.797091,2.336836 -3.65625,2.6875 -1.930994,0.364213 -4.223383,-0.164907 -6.21875,-2.65625 -0.124045,-0.154879 -0.238238,-0.318841 -0.46875,-0.4375 -0.230512,-0.118659 -0.494677,-0.08418 -0.75,0 -1.415554,0.467503 -2.61589,0.390176 -3.625,-0.03125 -1.00911,-0.421426 -1.835012,-1.203954 -2.53125,-2.25 -1.392476,-2.092092 -2.125245,-5.182911 -2.1875,-7.9375 0.216953,-14.055814 13.976007,-21.315871 20.937549,-24.704946 z"
         id="path5180"
         inkscape:connector-curvature="0"
         sodipodi:nodetypes="ccccccsscccscssccssssccssccssccccccccccccccccccccccssssscsssccssccccccssscsscc" />
      <g
         transform="translate(25,5)"
         style="fill:#225500;stroke:#17280b;stroke-width:1.47105089000000011;stroke-linecap:round;stroke-linejoin:round;stroke-miterlimit:4;stroke-opacity:1;stroke-dasharray:none"
         id="g5182">
        <g
           id="g5184"
           style="fill:#225500;stroke:#17280b;stroke-width:1.47105089000000011;stroke-miterlimit:4;stroke-opacity:1;stroke-dasharray:none;stroke-linejoin:round;stroke-linecap:round">
          <path
             style="font-size:medium;font-style:normal;font-variant:normal;font-weight:normal;font-stretch:normal;text-indent:0;text-align:start;text-decoration:none;line-height:normal;letter-spacing:normal;word-spacing:normal;text-transform:none;direction:ltr;block-progression:tb;writing-mode:lr-tb;text-anchor:start;baseline-shift:baseline;color:#000000;fill:#225500;fill-opacity:1;stroke:#17280b;stroke-width:1.47105089000000011;marker:none;visibility:visible;display:inline;overflow:visible;enable-background:accumulate;font-family:Sans;-inkscape-font-specification:Sans;stroke-linejoin:round;stroke-linecap:round;stroke-miterlimit:4;stroke-dasharray:none"
             d="M 16.59375,32.875 A 0.41387536,0.41387536 0 0 0 16.3125,33.25 c -0.07968,0.976756 -0.526934,1.994412 -0.46875,3.625 0.05818,1.630588 0.622116,3.826063 2.4375,7.21875 A 0.41387536,0.41387536 0 1 0 19,43.71875 c -1.778595,-3.323933 -2.260025,-5.4044 -2.3125,-6.875 -0.05248,-1.4706 0.343743,-2.381863 0.4375,-3.53125 A 0.41387536,0.41387536 0 0 0 16.59375,32.875 z"
             id="path5186"
             inkscape:connector-curvature="0" />
          <path
             style="font-size:medium;font-style:normal;font-variant:normal;font-weight:normal;font-stretch:normal;text-indent:0;text-align:start;text-decoration:none;line-height:normal;letter-spacing:normal;word-spacing:normal;text-transform:none;direction:ltr;block-progression:tb;writing-mode:lr-tb;text-anchor:start;baseline-shift:baseline;color:#000000;fill:#225500;fill-opacity:1;stroke:#17280b;stroke-width:1.47105089000000011;marker:none;visibility:visible;display:inline;overflow:visible;enable-background:accumulate;font-family:Sans;-inkscape-font-specification:Sans;stroke-linejoin:round;stroke-linecap:round;stroke-miterlimit:4;stroke-dasharray:none"
             d="m 26.03125,32.9375 a 0.41387536,0.41387536 0 0 0 -0.3125,0.3125 c -0.728341,3.1929 -0.01965,7.020155 3.3125,10.84375 a 0.41387536,0.41387536 0 1 0 0.625,-0.53125 c -3.19334,-3.664311 -3.796151,-7.18281 -3.125,-10.125 a 0.41387536,0.41387536 0 0 0 -0.5,-0.5 z"
             id="path5188"
             inkscape:connector-curvature="0" />
        </g>
      </g>
    </g>
    <rect
       y="93.5"
       x="0"
       height="2.5"
       width="96"
       id="rect3878"
       style="fill:#000000;fill-opacity:1;stroke:none;opacity:0.1719457" />
    <rect
       style="fill:#80b3ff;fill-opacity:1;stroke:none"
       id="rect3880"
       width="96"
       height="2.5"
       x="0"
       y="0" />
    <g
       transform="matrix(2.042321,0.57710452,-0.57710452,2.042321,15.389273,-23.206299)"
       style="fill:#e3f4d7;stroke:none"
       id="g3562">
      <path
         inkscape:connector-curvature="0"
         sodipodi:nodetypes="ccsssscssccc"
         id="path3564"
         d="M 32.62692,6.6695339 C 28.943103,10.347154 11.111941,12.664469 9,33 c 0.3414198,5.11565 2.750163,11.619293 7.499797,10.597643 0.982779,-0.211397 2.038704,0.196803 2.703808,0.809838 4.351738,4.011057 8.52874,2.374752 9.651419,-0.445034 0.215237,-0.540601 0.899973,-0.596833 1.460892,-0.37289 C 36.857006,46.201039 38.613158,38.645886 39,33 39.096949,30.551387 37.800853,11.942617 35.822153,10.473066 35.232485,10.035129 33.801652,12.187441 32.644545,14.379307 23.397466,31.895713 11.762403,24.057082 32.238499,7.1548098 l 0.235001,-0.5271607 0.270917,0.030985"
         style="fill:#e3f4d7;fill-opacity:1;fill-rule:nonzero;stroke:none" />
      <g
         style="fill:#e3f4d7;fill-opacity:1;stroke:none"
         id="g3566">
        <path
           inkscape:connector-curvature="0"
           style="fill:#e3f4d7;fill-opacity:1;fill-rule:evenodd;stroke:none"
           d="M 24,45 24,33"
           id="path3568" />
        <path
           inkscape:connector-curvature="0"
           style="fill:#e3f4d7;fill-opacity:1;fill-rule:evenodd;stroke:none"
           d="m 15,42 0,-7"
           id="path3570" />
        <path
           inkscape:connector-curvature="0"
           style="fill:#e3f4d7;fill-opacity:1;fill-rule:evenodd;stroke:none"
           d="m 33,42 0,-7"
           id="path3572" />
      </g>
    </g>
    <g
       transform="matrix(2.042321,0.57710452,-0.57710452,2.042321,15.389273,-23.206299)"
       id="g3574"
       style="fill:#8dd35f;fill-opacity:1;stroke:none">
      <path
         inkscape:connector-curvature="0"
         sodipodi:nodetypes="csccsssscc"
         id="path3576"
         d="m 35.234589,13.724224 c -3.738051,8.081569 -13.234694,16.222743 -15.739843,10.908947 -1.235532,-2.620748 0.949841,-7.293696 5.475765,-12.587054 -5.917527,3.638792 -15.9656505,12.611852 -14.356426,21.845048 -0.373989,3.839534 2.603499,10.963452 6.460619,8.636853 1.02821,-0.620212 2.757632,0.276028 3.378232,1.331675 1.318547,2.242864 6.112369,1.587546 7.154116,0.151368 0.767834,-1.058552 2.373555,-1.67156 3.638431,-1.376939 5.533355,1.288856 5.920667,-6.12533 5.897326,-9.045945 1.628814,-10.746518 -1.787127,-15.883715 -1.90822,-19.863953 z"
         style="fill:#8dd35f;fill-opacity:1;fill-rule:nonzero;stroke:none" />
      <g
         style="fill:#8dd35f;fill-opacity:1;stroke:none"
         id="g3578">
        <path
           inkscape:connector-curvature="0"
           style="fill:#8dd35f;fill-opacity:1;fill-rule:evenodd;stroke:none"
           d="m 33,42 0,-7"
           id="path3580" />
        <path
           inkscape:connector-curvature="0"
           style="fill:#8dd35f;fill-opacity:1;fill-rule:evenodd;stroke:none"
           d="M 24,45 24,33"
           id="path3582" />
        <path
           inkscape:connector-curvature="0"
           style="fill:#8dd35f;fill-opacity:1;fill-rule:evenodd;stroke:none"
           d="m 15,42 0,-7"
           id="path3584" />
      </g>
    </g>
    <path
       inkscape:connector-curvature="0"
       id="path3590"
       d="m 29.908398,50.260015 a 3.1837567,3.1837567 0 0 0 -2.085907,1.20763 c -5.625696,7.022736 -4.444642,17.164741 -3.84246,22.396055 a 3.1837567,3.1837567 0 1 0 6.312613,-0.7136 C 29.733603,68.293599 29.60996,59.479092 32.817689,55.474783 a 3.1837567,3.1837567 0 0 0 -2.909291,-5.214768 z"
       style="font-size:medium;font-style:normal;font-variant:normal;font-weight:normal;font-stretch:normal;text-indent:0;text-align:start;text-decoration:none;line-height:normal;letter-spacing:normal;word-spacing:normal;text-transform:none;direction:ltr;block-progression:tb;writing-mode:lr-tb;text-anchor:start;baseline-shift:baseline;color:#000000;fill:#e3f4d7;fill-opacity:1;stroke:none;stroke-width:3.62464189999999986;marker:none;visibility:visible;display:inline;overflow:visible;enable-background:accumulate;font-family:Sans;-inkscape-font-specification:Sans" />
    <path
       sodipodi:nodetypes="ccsccscccccscc"
       inkscape:connector-curvature="0"
       id="path3592"
       d="m 49.010915,56.792198 c -1.133802,0.171615 -2.142538,1.004871 -2.525045,2.085907 -2.649339,6.917447 -3.246989,11.436145 -2.63483,15.260056 0.601444,3.757004 2.114029,6.282717 3.238645,9.496367 0.02002,0.05726 0.03513,0.106974 0.0548,0.164589 0.502954,1.595179 1.528079,-0.59303 3.123258,-1.095984 1.595178,-0.502954 3.472828,0.77002 2.969874,-0.825159 l -0.0548,-0.164589 -0.274461,-0.933169 c -0.088,-0.290955 -0.217795,-0.569211 -0.384334,-0.823472 1.58e-4,-0.01827 1.58e-4,-0.03654 0,-0.0548 -1.019557,-2.594324 -2.108778,-4.837302 -2.415261,-6.751752 -0.388866,-2.42905 -0.08133,-5.646177 2.360368,-12.021412 0.841266,-2.080707 -1.242462,-4.693686 -3.458214,-4.336578 z"
       style="font-size:medium;font-style:normal;font-variant:normal;font-weight:normal;font-stretch:normal;text-indent:0;text-align:start;text-decoration:none;line-height:normal;letter-spacing:normal;word-spacing:normal;text-transform:none;direction:ltr;block-progression:tb;writing-mode:lr-tb;text-anchor:start;baseline-shift:baseline;color:#000000;fill:#e3f4d7;fill-opacity:1;stroke:none;stroke-width:3.62464189999999986;marker:none;visibility:visible;display:inline;overflow:visible;enable-background:accumulate;font-family:Sans;-inkscape-font-specification:Sans" />
    <g
       style="fill:#225500"
       transform="matrix(2.042321,0.57710452,-0.57710452,2.042321,-32.783235,-48.784191)"
       id="g3596">
      <path
         sodipodi:nodetypes="ccccccsscccscssccssssccssccssccccccccccccccccccccccssssscsssccssccccccssscsscc"
         inkscape:connector-curvature="0"
         id="path3598"
         d="m 58.500049,11.232554 c -0.01096,0.0099 -0.0214,0.02029 -0.03125,0.03125 -0.01041,-3.93e-4 -0.02084,-3.93e-4 -0.03125,0 -0.0069,0.0034 -0.02423,0.02779 -0.03125,0.03125 -0.01041,-3.93e-4 -0.02084,-3.93e-4 -0.03125,0 -4.23292,2.080901 -24.423284,9.958943 -24.687549,27.079946 0.06516,2.883078 0.819369,6.084731 2.34375,8.375 0.762191,1.145135 1.709602,2.062754 2.90625,2.5625 1.196648,0.499746 2.616654,0.58129 4.1875,0.0625 0.167999,-0.05539 0.144064,-0.05269 0.125,-0.0625 -0.01906,-0.0098 0.05716,0.05602 0.1875,0.21875 2.158877,2.695496 4.829936,3.383949 7.03125,2.96875 2.013824,-0.379836 3.564487,-1.646302 4.15625,-3.0625 1.784751,0.552363 3.28413,0.61086 4.53125,0.21875 1.317999,-0.414396 2.343372,-1.312739 3.09375,-2.4375 1.490484,-2.234123 2.038313,-5.420231 2.28125,-8.34375 0.0017,-0.02015 -0.0016,-0.04238 0,-0.0625 0.288118,-1.412855 0.224617,-3.596887 0,-6.125 -0.226909,-2.55391 -0.645023,-5.423891 -1.125,-8.09375 -0.479977,-2.669859 -1.012317,-5.139456 -1.5,-6.84375 -0.243841,-0.852147 -0.468004,-1.497787 -0.6875,-1.9375 -0.109748,-0.219856 -0.200094,-0.386217 -0.40625,-0.53125 -0.103078,-0.07252 -0.259745,-0.143702 -0.4375,-0.09375 -0.177755,0.04995 -0.283219,0.17825 -0.34375,0.28125 -3.974984,6.763852 -7.2778,10.678611 -9.625,12.5 -1.1736,0.910695 -2.133914,1.271915 -2.71875,1.28125 -0.292418,0.0047 -0.495624,-0.0613 -0.65625,-0.1875 -0.160626,-0.126204 -0.28843,-0.329025 -0.375,-0.625 -0.34628,-1.183901 0.263115,-3.83272 2.25,-6.9375 1.978367,-3.09147 5.05327,-6.238006 9.875049,-9.486196 0.0074,-0.005 0.02387,0.005 0.03125,0 0.01096,-0.0099 0.0214,-0.02029 0.03125,-0.03125 0.0471,-0.02296 0.08977,-0.05497 0.125,-0.09375 3.94e-4,-0.01041 3.94e-4,-0.02084 0,-0.03125 0.01411,-0.02985 0.02462,-0.0614 0.03125,-0.09375 0.01411,-0.02985 0.02462,-0.0614 0.03125,-0.09375 0.0035,-0.03111 0.0035,-0.06263 0,-0.09375 3.94e-4,-0.01041 3.94e-4,-0.02084 0,-0.03125 3.94e-4,-0.01041 3.94e-4,-0.02084 0,-0.03125 -0.01357,-0.0448 -0.0348,-0.08727 -0.0625,-0.125 -0.01041,-3.93e-4 -0.02084,-3.93e-4 -0.03125,0 3.94e-4,-0.01041 3.94e-4,-0.02084 0,-0.03125 -0.01041,-3.93e-4 -0.02084,-3.93e-4 -0.03125,0 -0.01852,-0.02298 -0.03952,-0.04397 -0.0625,-0.0625 -0.0099,-0.01096 -0.02029,-0.0214 -0.03125,-0.03125 -0.01041,-3.93e-4 -0.02084,-3.93e-4 -0.03125,0 -0.0199,-0.01215 -0.04084,-0.02262 -0.0625,-0.03125 -0.02079,-0.0016 -0.04171,-0.0016 -0.0625,0 -0.01041,-3.93e-4 -0.02084,-3.93e-4 -0.03125,0 -0.04135,-0.0063 -0.08365,-0.0063 -0.125,0 z m -3.03125,2.4375 c -3.255932,2.639205 -5.67004,4.892215 -7.250049,7.361196 -2.055935,3.21268 -2.83717,5.938039 -2.34375,7.625 0.123355,0.42174 0.335962,0.810849 0.65625,1.0625 0.320288,0.251651 0.741681,0.350866 1.1875,0.34375 0.891639,-0.01423 1.937337,-0.498644 3.1875,-1.46875 2.446399,-1.898366 5.671905,-5.825722 9.5625,-12.375 0.168495,0.343163 0.422611,0.964757 0.65625,1.78125 0.474511,1.658262 0.992414,4.069145 1.46875,6.71875 0.476336,2.649605 0.901127,5.542759 1.125,8.0625 0.223873,2.519741 0.256357,4.692386 0,5.90625 -0.01215,0.0199 -0.02262,0.04084 -0.03125,0.0625 -0.236002,2.885025 -0.779895,6.015039 -2.125,8.03125 -0.672552,1.008106 -1.540575,1.711718 -2.65625,2.0625 -1.072563,0.337228 -2.420972,0.291059 -4.125,-0.25 -0.0139,-0.02237 0.01876,-0.04008 0,-0.0625 -0.08222,-0.09827 -0.230777,-0.179135 -0.34375,-0.1875 -0.112973,-0.0084 -0.203468,0.01758 -0.28125,0.0625 -0.155564,0.08983 -0.276175,0.323645 -0.21875,0.5625 0.0044,0.01837 0.02534,0.01439 0.03125,0.03125 -0.374647,1.088123 -1.797091,2.336836 -3.65625,2.6875 -1.930994,0.364213 -4.223383,-0.164907 -6.21875,-2.65625 -0.124045,-0.154879 -0.238238,-0.318841 -0.46875,-0.4375 -0.230512,-0.118659 -0.494677,-0.08418 -0.75,0 -1.415554,0.467503 -2.61589,0.390176 -3.625,-0.03125 -1.00911,-0.421426 -1.835012,-1.203954 -2.53125,-2.25 -1.392476,-2.092092 -2.125245,-5.182911 -2.1875,-7.9375 0.216953,-14.055814 13.976007,-21.315871 20.937549,-24.704946 z"
         style="font-size:medium;font-style:normal;font-variant:normal;font-weight:normal;font-stretch:normal;text-indent:0;text-align:start;text-decoration:none;line-height:normal;letter-spacing:normal;word-spacing:normal;text-transform:none;direction:ltr;block-progression:tb;writing-mode:lr-tb;text-anchor:start;baseline-shift:baseline;color:#000000;fill:#225500;fill-opacity:1;stroke:none;stroke-width:0.82787842000000000;marker:none;visibility:visible;display:inline;overflow:visible;enable-background:accumulate;font-family:Sans;-inkscape-font-specification:Sans" />
      <g
         id="g3600"
         style="fill:#225500;stroke:#306600;stroke-width:0.82766795000000004;stroke-linecap:round;stroke-linejoin:bevel;stroke-miterlimit:4;stroke-opacity:1;stroke-dasharray:none"
         transform="translate(25,5)">
        <g
           style="fill:#225500;stroke:#204c00;stroke-width:0.82766795000000004;stroke-miterlimit:4;stroke-opacity:1;stroke-dasharray:none"
           id="g3602">
          <path
             inkscape:connector-curvature="0"
             id="path3606"
             d="M 16.59375,32.875 A 0.41387536,0.41387536 0 0 0 16.3125,33.25 c -0.07968,0.976756 -0.526934,1.994412 -0.46875,3.625 0.05818,1.630588 0.622116,3.826063 2.4375,7.21875 A 0.41387536,0.41387536 0 1 0 19,43.71875 c -1.778595,-3.323933 -2.260025,-5.4044 -2.3125,-6.875 -0.05248,-1.4706 0.343743,-2.381863 0.4375,-3.53125 A 0.41387536,0.41387536 0 0 0 16.59375,32.875 z"
             style="font-size:medium;font-style:normal;font-variant:normal;font-weight:normal;font-stretch:normal;text-indent:0;text-align:start;text-decoration:none;line-height:normal;letter-spacing:normal;word-spacing:normal;text-transform:none;direction:ltr;block-progression:tb;writing-mode:lr-tb;text-anchor:start;baseline-shift:baseline;color:#000000;fill:#225500;fill-opacity:1;stroke:none;stroke-width:0.82766795000000004;marker:none;visibility:visible;display:inline;overflow:visible;enable-background:accumulate;font-family:Sans;-inkscape-font-specification:Sans" />
          <path
             inkscape:connector-curvature="0"
             id="path3608"
             d="m 26.03125,32.9375 a 0.41387536,0.41387536 0 0 0 -0.3125,0.3125 c -0.728341,3.1929 -0.01965,7.020155 3.3125,10.84375 a 0.41387536,0.41387536 0 1 0 0.625,-0.53125 c -3.19334,-3.664311 -3.796151,-7.18281 -3.125,-10.125 a 0.41387536,0.41387536 0 0 0 -0.5,-0.5 z"
             style="font-size:medium;font-style:normal;font-variant:normal;font-weight:normal;font-stretch:normal;text-indent:0;text-align:start;text-decoration:none;line-height:normal;letter-spacing:normal;word-spacing:normal;text-transform:none;direction:ltr;block-progression:tb;writing-mode:lr-tb;text-anchor:start;baseline-shift:baseline;color:#000000;fill:#225500;fill-opacity:1;stroke:none;stroke-width:0.82766795000000004;marker:none;visibility:visible;display:inline;overflow:visible;enable-background:accumulate;font-family:Sans;-inkscape-font-specification:Sans" />
        </g>
      </g>
    </g>
  </g>
</svg>
