<svg xmlns="http://www.w3.org/2000/svg" xmlns:xlink="http://www.w3.org/1999/xlink" height="800" width="1200" viewBox="-6.9 -11.25005 59.8 67.5003"><defs><linearGradient x1="13.06" y1="10.03" gradientTransform="matrix(1.5025 0 0 1 -7.595 -3.1398)" x2="16.545" gradientUnits="userSpaceOnUse" y2="12.892" id="d"><stop stop-color="#3b1941"/><stop offset="1" stop-color="#a949b9"/></linearGradient><linearGradient x1="10.499" y1="24.936" x2="9.642" gradientUnits="userSpaceOnUse" xlink:href="#a" y2="23.676" id="s"/><linearGradient x1="12.409" y1="10.603" gradientTransform="matrix(1.2363 0 0 .5496 -6.483 2.7752)" x2="16.14" gradientUnits="userSpaceOnUse" y2="13.895" id="e"><stop stop-color="#3b1941"/><stop offset="1" stop-color="#a646b7"/></linearGradient><linearGradient gradientTransform="translate(-1 -.9998)" y1="40.42" x2="0" gradientUnits="userSpaceOnUse" y2="43.35" id="u"><stop stop-color="#6b3678"/><stop offset="1" stop-opacity="0" stop-color="#6b3678"/></linearGradient><linearGradient gradientTransform="translate(-1 -.9998)" x1="11.563" y1="24.343" x2="10.625" gradientUnits="userSpaceOnUse" y2="18.719" id="j"><stop stop-color="#9a5ba8"/><stop offset="1" stop-color="#744380"/></linearGradient><linearGradient gradientTransform="translate(-1 -.9998)" y1="39.1" x2="0" gradientUnits="userSpaceOnUse" y2="44.32" id="t"><stop stop-color="#7a1d90"/><stop offset="1" stop-opacity="0" stop-color="#6b3678"/></linearGradient><linearGradient gradientTransform="translate(-1 -.9998)" x1="24.917" y1="23.377" x2="26.01" gradientUnits="userSpaceOnUse" y2="18.251" id="m"><stop stop-color="#9a5ba8"/><stop offset="1" stop-color="#6b3e75"/></linearGradient><linearGradient gradientTransform="translate(-1 -.9998)" x1="26.12" y1="1.804" x2="41.875" gradientUnits="userSpaceOnUse" y2="33.679" id="b"><stop stop-color="#729fcf"/><stop offset="1" stop-color="#25486d"/></linearGradient><linearGradient x1="10.487" y1="25.21" x2="9.751" gradientUnits="userSpaceOnUse" xlink:href="#a" y2="23.676" id="l"/><linearGradient id="a"><stop/><stop offset="1" stop-color="#fff"/></linearGradient><linearGradient y1="40.669" gradientTransform="matrix(1 0 0 .9882 .563 -3.3958)" x2="0" gradientUnits="userSpaceOnUse" y2="47.02" id="i"><stop stop-opacity=".955" stop-color="#fff"/><stop offset="1" stop-opacity="0" stop-color="#eee"/></linearGradient><linearGradient gradientTransform="translate(-1 -.9998)" y1="4.887" x2="0" gradientUnits="userSpaceOnUse" y2="22.782" id="c"><stop stop-color="#fff"/><stop offset="1" stop-color="#d3e1f1"/></linearGradient><linearGradient y1="41.606" gradientTransform="matrix(1 0 0 .9882 .447 -3.4858)" x2="0" gradientUnits="userSpaceOnUse" y2="49.07" id="g"><stop stop-color="#3b1941"/><stop offset="1" stop-opacity="0" stop-color="#3b1941"/></linearGradient><linearGradient gradientTransform="matrix(1.0946 .9356 -.6068 1.521 15.746 -34.0998)" x1="17.969" y1="29.495" x2="18.14" gradientUnits="userSpaceOnUse" y2="30.19" id="r"><stop stop-color="#6e3100"/><stop offset="1" stop-opacity="0" stop-color="#6e3100"/></linearGradient><linearGradient y1="43.45" gradientTransform="matrix(1 0 0 .9882 .447 -3.4858)" x2="0" gradientUnits="userSpaceOnUse" y2="47.758" id="f"><stop stop-color="#7e408d"/><stop offset="1" stop-opacity="0" stop-color="#82508e"/></linearGradient><linearGradient gradientTransform="matrix(-1.0946 .9356 .6068 1.521 22.29 -34.1198)" x1="18.34" y1="29.339" x2="18.03" gradientUnits="userSpaceOnUse" y2="30.431" id="q"><stop stop-color="#522400"/><stop offset="1" stop-opacity="0" stop-color="#6e3100"/></linearGradient><linearGradient x1="18.5" y1="29.911" gradientTransform="matrix(1.0769 0 0 1.1429 -1.905 -5.6798)" x2="19.985" gradientUnits="userSpaceOnUse" y2="29.854" id="p"><stop stop-color="#fdb751"/><stop offset="1" stop-color="#ce5c00"/></linearGradient><filter id="n"><feGaussianBlur stdDeviation=".272"/></filter><filter x="-.095" y="-.277" width="1.191" height="1.554" id="o"><feGaussianBlur stdDeviation=".3102"/></filter><radialGradient r="16.39" gradientTransform="matrix(1.3365 0 0 1.3895 -1.759 -11.7118)" cx="14.93" cy="25.802" gradientUnits="userSpaceOnUse" id="h"><stop stop-color="#fff"/><stop offset="1" stop-opacity="0" stop-color="#eee"/></radialGradient><path d="M11.411 24.312a1.241 1.295 0 11-2.482 0 1.241 1.295 0 112.482 0z" id="k"/></defs><path fill="#efefef" stroke="url(#b)" d="M19.531.5002c-3.338 0-6.031 3.1112-6.031 6.9688v12.062c0 3.858 2.693 6.969 6.031 6.969H33.53s-.124 3.18-1.601 5.034c5.191 0 6.425-5.048 6.425-5.048l2.146.014c4.013 0 5-3.117 5-6.969V7.469C45.5 3.6112 42.807.5 39.469.5H19.531z"/><path fill="url(#c)" stroke="#fff" d="M19.531 1.5002c-2.715 0-5.031 2.5779-5.031 5.9688v12.062c0 3.391 2.316 5.969 5.031 5.969h14c.552.002.999.448 1 1 0 0-.163 2.713-.781 3.842 2.103 0 3.781-4.654 3.781-4.654.173-.124.381-.19.594-.188H40.5c1.747 0 2.565-.567 3.156-1.562.591-.996.844-2.566.844-4.407V7.469c0-3.3911-2.316-5.969-5.031-5.969H19.531z"/><rect fill="#eee" x="14.643" y="25.4092" width="7" height="1.86" ry=".93" rx=".814"/><path fill="url(#d)" d="M9.968 6.6824c2.858-1.8057 7.715 1.4135 8.234 3.0698h-3.946c-.062-2.3438-4.288-3.0698-4.288-3.0698z"/><path fill="url(#e)" d="M7.921 8.9274c1.622-1.8572 6.613-.4174 6.613.9328l-3.791.552c1.216-1.6133-2.822-1.4848-2.822-1.4848z"/><path fill="url(#f)" stroke="url(#g)" d="M15.447 9.4822c-6.6236 0-12.516 5.448-11.937 12.231C4.7769 36.5552.9404 34.5432.5 41.3162c0 2.06.9854 3.04 3.0921 3.04 1.1874 0 26.215.144 28.906.144 2.115 0 1.949-2.035 1.949-2.035 0-2.634-6.402-4.844-8.186-6.778-1.829-1.977.186-9.033.186-9.033.642-1.512 1-3.187 1-4.941 0-6.819-5.376-12.231-12-12.231z"/><path fill="url(#h)" stroke="url(#i)" d="M15.25 10.5002c-6.012 0-11.222 5.111-10.75 11.334.5644 7.436.3175 9.988-1.4763 14.707-2.88 4.745-.9002 6.992 1.4422 6.992 1.9365 0 20.055-.029 25.881-.029 1.167 0 3.153.498 3.153-.95 0-.219-.2-.631-.75-1.142-.55-.512-1.373-1.061-2.281-1.606-.908-.545-1.878-1.097-2.75-1.637-.872-.54-1.645-1.044-2.188-1.76-.61-.804-.89-1.75-.944-2.779-.055-1.029.083-2.133.2-3.181.234-2.095.744-3.922.744-3.922.015-.063.036-.125.063-.185.587-1.385.906-2.928.906-4.54 0-6.27-5.228-11.302-11.25-11.302z" opacity=".55"/><path fill="url(#j)" d="M10.06 16.0002c-1.336 0-2.44.784-3.094 1.75-.654.965-.969 2.13-.969 3.281 0 2.695 1.992 5.03 4.563 5.03 1.071 0 2.127-.504 3-1.312.872-.809 1.562-2.01 1.562-3.438 0-1.277-.669-2.472-1.562-3.469-.894-.996-2.085-1.843-3.5-1.843z"/><path fill="#fff" d="M14.094 21.3212c0 2.208-2.106 3.71-3.527 3.71-1.9461 0-3.5259-1.792-3.5259-4 0-1.919 1.0829-4 3.0299-4 1.946 0 4.023 2.546 4.023 4.29z"/><use height="100%" width="100%" xlink:href="#k" fill="#6b1a80" transform="matrix(1.2378 0 0 1.5448 -2.03 -16.3878)"/><use height="100%" width="100%" xlink:href="#k" fill="url(#l)" transform="matrix(.4029 0 0 .7724 6.497 2.2522)"/><path fill="url(#m)" d="M24.723 16.0002c-1.052.04-2 .44-2.657 1.156-1.565 1.719-1.352 4.456.281 6.25.699.767 1.605 1.35 2.626 1.563 1.02.212 2.213-.04 3.03-.938.874-.96 1.071-2.246 1-3.469-.071-1.222-.403-2.419-1.188-3.281-.874-.96-2.052-1.321-3.093-1.281z"/><path fill="#fff" d="M27.071 17.9852c-1.305-1.433-3.427-1.051-4.26-.136-1.141 1.253-1.009 3.433.296 4.866 1.133 1.245 2.998 1.897 4.139.644 1.142-1.253.855-4.242-.175-5.374z"/><use height="100%" width="100%" xlink:href="#k" fill="#6b1a80" transform="matrix(1.2086 0 0 1.5988 12.243 -17.7658)"/><g fill="#5c3566"><path filter="url(#n)" transform="matrix(.9903 0 0 1.0468 -.32 -2.6318)" d="M19.062 25.219c-.461 0-.788.285-.968.5-.18.214-.278.433-.406.656-.258.446-.526.906-.876 1.25-.349.344-1.059.806-1.721.833-1.322-.305-2.524-.883-3.648-1.069a.7845.7845 0 00-.162.923c1.167 2.168 2.424 3.341 4.878 4.673 1.208.655 3.393 1.304 4.504 1.752 1.368-.902 4.88-4.398 5.087-6.612a.782.782 0 00-.287-.854c-.984.546-2.103.895-3.213 1.155-.463-.017-.74-.433-1.031-.77-.291-.336-.539-.827-.781-1.281-.122-.227-.229-.438-.407-.656-.177-.219-.506-.5-.969-.5z"/><path filter="url(#o)" transform="translate(.049 -1.5908)" d="M15.812 26.625c-.677 0-1.187.627-1.187 1.313 0 .685.51 1.312 1.187 1.312h5.376c.677 0 1.187-.627 1.187-1.312 0-.686-.51-1.313-1.187-1.313z"/></g><rect fill="#fff" x="15.02" y="25.1702" width="7" height="1.86" ry=".93" rx=".814"/><path fill="url(#p)" d="M11.018 26.2842c6.314 3.664 6.517-2.25 7.604-2.25 1.072 0 1.267 5.912 6.396 2.196-.285 3.081-3.95 5.835-4.998 6.835-2.032-1.093-6.981-2.311-9.002-6.781z"/><path fill="url(#q)" d="M20.2035 28.2945a1.0612.3884 71.324 10.6294-.538 1.0612.3884 71.324 10-.6294.538z" opacity=".611"/><path fill="url(#r)" d="M17.8325 28.3145a.3884 1.0612 18.676 11-.6294-.538.3884 1.0612 18.676 11.6294.538z" opacity=".611"/><use height="100%" width="100%" xlink:href="#k" fill="url(#s)" transform="matrix(.4029 0 0 .7724 20.438 2.2552)"/><path fill="url(#t)" d="M2.375 43.9382c-1.625-.376-2.25-3.876.8125-9.188C4.3981 39.7582 10 43.3752 10 43.3752z" opacity=".611"/><path fill="url(#u)" d="M32.648 43.9382c1.625-.376 3.125-2.376-4.875-6.376.352 4.133-2.75 5.813-2.75 5.813z" opacity=".611"/></svg>