<?xml version="1.0" encoding="utf-8"?>
<!-- Generator: Adobe Illustrator 24.2.0, SVG Export Plug-In . SVG Version: 6.00 Build 0)  -->
<svg version="1.1" id="Слой_1" xmlns="http://www.w3.org/2000/svg" xmlns:xlink="http://www.w3.org/1999/xlink" x="0px" y="0px"
	 viewBox="0 0 240 240" style="enable-background:new 0 0 240 240;" xml:space="preserve">
<style type="text/css">
	.st0{fill:#F9F9F9;}
</style>
<g>
	<path class="st0" d="M182.9,236.9H57.1c-30.2,0-54.6-24.4-54.6-54.6V56.5c0-30.2,24.4-54.6,54.6-54.6h125.8
		c30.2,0,54.6,24.4,54.6,54.6v125.8C237.5,212.5,213.1,236.9,182.9,236.9z"/>
	<g>
		<path d="M58.3,39.8c-3.3,0-6.2,1.8-8.2,5c-1.3-3.2-3.8-5-7.2-5c-2.9,0-5.3,1.2-7.4,3.7v-3.1h-3.6v23.2h3.6v-9.9
			c0-3.4,0.3-6,1.8-7.9c1.2-1.6,3.1-2.5,5-2.5c3,0,4.6,2.1,4.7,4.2c0,0.3,0,0.7,0.1,1.2c0.1,0.8,0.1,1.9,0.1,3v11.9h3.6V53.4
			c0-1.9,0.1-3.9,0.8-5.8c1.1-2.7,3.4-4.4,6.1-4.4c2.8,0,4.6,2,4.7,3.9c0,0.3,0,0.6,0.1,1c0.1,0.8,0.2,1.7,0.2,2.8v12.6h3.6V49.9
			C66.3,43.6,63.3,39.8,58.3,39.8z"/>
		<path d="M90.7,55.6c-1.6,2.7-3.8,5.2-8.3,5.2c-4.5,0-7.8-3.4-8.1-8.2h20.2l0-0.4c-0.1-7.3-5-12.4-12-12.4
			c-7.5,0-11.9,6.2-11.9,12.3c0,6,4.2,12.1,12.1,12.1c5.1,0,8.7-2.3,11-6.9l0.2-0.3l-3-1.6L90.7,55.6z M74.7,49.3c1.3-3.9,4-6,7.9-6
			c3.9,0,6.8,2.2,8,6H74.7z"/>
		<rect x="103.4" y="108.1" transform="matrix(0.7071 0.7071 -0.7071 0.7071 149.8879 -31.7012)" width="19.6" height="114"/>
		<rect x="157.3" y="108.4" transform="matrix(0.7071 0.7071 -0.7071 0.7071 165.934 -69.724)" width="19.6" height="114"/>
	</g>
</g>
</svg>
